<svg width="686" height="534" viewBox="0 0 686 534" fill="none" xmlns="http://www.w3.org/2000/svg">
<mask id="mask0" mask-type="alpha" maskUnits="userSpaceOnUse" x="0" y="0" width="686" height="534">
<rect width="686" height="534" fill="#F1E5E5"/>
</mask>
<g mask="url(#mask0)">
<path fill-rule="evenodd" clip-rule="evenodd" d="M708.068 -70.3179C792.127 -78.5073 867.528 -11.6122 915.231 58.0828C956.017 117.671 936.646 193.045 937.748 265.246C938.881 339.459 966.403 419.617 921.653 478.832C873.203 542.944 787.747 579.616 708.068 569.174C633.994 559.466 595.18 483.738 543.978 429.336C495.422 377.746 423.351 336.08 422.019 265.246C420.677 193.898 491.393 149.172 537.687 94.8651C591.033 32.2844 626.223 -62.3441 708.068 -70.3179Z" fill="#121677" fill-opacity="0.7"/>
<path fill-rule="evenodd" clip-rule="evenodd" d="M294.781 432.912C365.657 438.925 442.272 429.809 495.184 477.347C550.085 526.671 568.679 603.959 567.301 677.75C565.949 750.08 543.915 825.104 487.834 870.802C435.391 913.535 362.389 897.484 294.781 899.813C222.959 902.287 148.337 923.544 87.9516 884.579C15.667 837.936 -43.4237 763.572 -49.358 677.75C-55.5818 587.741 -16.293 492.497 57.224 440.193C124.331 392.45 212.718 425.95 294.781 432.912Z" fill="#306F0A" fill-opacity="0.7"/>
<path fill-rule="evenodd" clip-rule="evenodd" d="M-45.3395 -67.7347C18.4289 -61.4924 70.9512 -27.483 121.608 11.7505C183.322 59.5479 270.666 100.669 272.845 178.698C275.035 257.099 194.176 308.488 131.201 355.239C79.3517 393.73 19.2271 413.86 -45.3395 414.909C-111.222 415.979 -179.415 405.894 -227.708 361.066C-277.512 314.835 -296.146 246.553 -299.808 178.698C-303.722 106.189 -300.682 26.0346 -248.519 -24.4815C-196.809 -74.5587 -116.981 -74.7478 -45.3395 -67.7347Z" fill="#BD1E1E" fill-opacity="0.7"/>
</g>
</svg>
